HIERARCHY
ROOT Hips
{
	OFFSET	0.00	0.00	0.00
	CHANNELS 6 Xposition Yposition Zposition Zrotation Xrotation Yrotation
	JOINT LeftHip
	{
		OFFSET	 3.430000	 0.000000	 0.000000
		CHANNELS 3 Zrotation Xrotation Yrotation
		JOINT LeftKnee
		{
			OFFSET	 0.000000	-18.469999	 0.000000
			CHANNELS 3 Zrotation Xrotation Yrotation
			JOINT LeftAnkle
			{
				OFFSET	 0.000000	-17.950001	 0.000000
				CHANNELS 3 Zrotation Xrotation Yrotation
				End Site 
				{
					OFFSET	 0.000000	-3.119996	 0.000000
				}
			}
		}
	}
	JOINT RightHip
	{
		OFFSET	-3.430000	 0.000000	 0.000000
		CHANNELS 3 Zrotation Xrotation Yrotation
		JOINT RightKnee
		{
			OFFSET	 0.000000	-18.809999	 0.000000
			CHANNELS 3 Zrotation Xrotation Yrotation
			JOINT RightAnkle
			{
				OFFSET	 0.000000	-17.570000	 0.000000
				CHANNELS 3 Zrotation Xrotation Yrotation
				End Site 
				{
					OFFSET	 0.000000	-3.250000	 0.000000
				}
			}
		}
	}
	JOINT Chest
	{
		OFFSET	 0.000000	 4.570000	 0.000000
		CHANNELS 3 Zrotation Xrotation Yrotation
		JOINT LeftCollar
		{
			OFFSET	 1.060000	 15.330000	 1.760000
			CHANNELS 3 Zrotation Xrotation Yrotation
			JOINT LeftShoulder
			{
				OFFSET	 5.810000	 0.000000	 0.000000
				CHANNELS 3 Zrotation Xrotation Yrotation
				JOINT LeftElbow
				{
					OFFSET	 0.000000	-12.080000	 0.000000
					CHANNELS 3 Zrotation Xrotation Yrotation
					JOINT LeftWrist
					{
						OFFSET	 0.000000	-9.820000	 0.000000
						CHANNELS 3 Zrotation Xrotation Yrotation
						End Site 
						{
							OFFSET	 0.000000	-7.369996	 0.000000
						}
					}
				}
			}
		}
		JOINT RightCollar
		{
			OFFSET	-1.060000	 15.330000	 1.760000
			CHANNELS 3 Zrotation Xrotation Yrotation
			JOINT RightShoulder
			{
				OFFSET	-6.060000	 0.000000	 0.000000
				CHANNELS 3 Zrotation Xrotation Yrotation
				JOINT RightElbow
				{
					OFFSET	 0.000000	-11.900000	 0.000000
					CHANNELS 3 Zrotation Xrotation Yrotation
					JOINT RightWrist
					{
						OFFSET	 0.000000	-9.520000	 0.000000
						CHANNELS 3 Zrotation Xrotation Yrotation
						End Site 
						{
							OFFSET	 0.000000	-7.140012	 0.000000
						}
					}
				}
			}
		}
		JOINT Neck
		{
			OFFSET	 0.000000	 17.620001	 0.000000
			CHANNELS 3 Zrotation Xrotation Yrotation
			JOINT Head
			{
				OFFSET	 0.000000	 5.190000	 0.000000
				CHANNELS 3 Zrotation Xrotation Yrotation
				End Site 
				{
					OFFSET	 0.000000	 4.140008	 0.000000
				}
			}
		}
	}
}

MOTION
Frames: 25
Frame Time: 0.033333
-36.2197 1.1118 -41.7273 4.19968 4.69937 100.291 9.95892 -2.55404 14.3347 -8.30193 12.2157 7.50313 -1.3328 1.21058 12.2762 -19.9387 4.44275 -16.3419 6.64249 24.8358 -1.95474 5.55043 -10.6435 2.66966 -3.25668 11.6138 4.93763 0 0 0 18.3259 -3.38299 19.7549 -3.93786 1.00633 -2.37537 -0.283534 -4.72157 -34.6958 0 0 0 -4.64128 -13.6494 5.38213 8.93303 -8.96232 1.38451 -4.98958 -26.1827 44.678 0 0 0 2.64741 -4.64307 0.217514 
-36.348 1.1145 -41.6157 4.25543 4.70132 99.9947 9.97035 -2.45124 14.6585 -8.23671 12.1898 7.46033 -1.32965 1.2644 12.2607 -19.5863 4.55367 -16.4396 6.48299 24.231 -1.92692 5.42867 -10.8927 3.00081 -3.10099 11.7281 4.71403 0 0 0 17.8622 -4.15731 19.5623 -3.96816 0.936653 -2.57624 0.220312 -4.76461 -34.1299 0 0 0 -4.85159 -13.7539 5.20412 8.96246 -8.88207 1.55829 -4.93595 -26.0998 44.6594 0 0 0 2.48728 -4.69897 0.566203 
-36.668 1.084 -41.3538 4.37778 4.63892 99.5673 10.3127 -2.61207 15.3992 -8.21548 12.4135 7.38508 -1.3768 1.49363 12.0204 -18.9718 4.34385 -16.4288 6.32599 23.4475 -1.86167 4.945 -11.2416 3.14602 -2.68336 12.0674 4.06528 0 0 0 16.6041 -6.08255 18.1895 -4.28986 0.468198 -2.9029 0.514381 -4.73551 -33.5062 0 0 0 -5.43622 -14.0277 4.22306 8.98668 -8.89324 1.65794 -5.00119 -25.8777 44.1073 0 0 0 2.16235 -4.93192 1.30774 
-37.0095 1.0698 -41.0838 4.46014 4.46732 99.1589 10.8929 -2.98312 16.1977 -8.17521 12.6113 7.30722 -1.47508 1.97405 11.7269 -18.1852 3.87598 -16.2818 6.21093 22.7833 -1.81159 4.31237 -11.3409 3.05837 -2.14449 12.4035 3.3938 0 0 0 15.2928 -8.11039 16.6757 -4.74001 -0.175537 -3.13481 0.692338 -4.71946 -33.0589 0 0 0 -6.00521 -14.2825 3.10042 8.98611 -8.76945 1.68794 -5.20861 -25.6541 43.3717 0 0 0 1.85934 -5.10825 2.10988 
-37.7678 1.0497 -40.5213 4.39925 4.00185 98.4197 12.8948 -5.16975 18.2769 -8.24907 13.5529 7.32968 -1.77244 4.28873 10.7049 -16.2971 3.03525 -16.4417 5.84948 21.0695 -1.79108 3.04464 -11.0285 3.46507 -0.930642 13.0115 2.29752 0 0 0 12.5383 -11.7681 13.4195 -6.01526 -2.35102 -3.61425 0.882596 -5.07719 -31.8743 0 0 0 -7.10901 -14.4118 1.28546 8.89803 -8.37383 1.6601 -5.4703 -25.1361 42.3797 0 0 0 1.17222 -5.56062 3.3545 
-39.4051 1.0397 -39.1477 6.80886 3.47561 96.3448 13.1118 -5.30198 17.6407 -8.41829 13.4543 7.37981 -1.99591 4.47171 9.44391 -16.6896 2.49043 -16.256 5.80061 21.3145 -1.59395 3.89655 -11.0521 3.08915 -0.556511 13.4875 2.67492 0 0 0 10.8312 -13.2371 11.3153 -6.5879 -3.39368 -4.29134 4.66394 -7.22436 -29.6016 0 0 0 -7.28437 -14.4382 -0.417382 8.8728 -8.13447 1.62435 -5.9511 -24.6678 41.5896 0 0 0 0.494019 -4.55535 6.18361 
-41.0424 1.0296 -37.774 8.43267 2.79034 93.7536 13.5048 -5.48194 17.0234 -8.5771 13.4724 7.36299 -2.38101 4.63617 8.22169 -16.8006 2.22082 -16.3315 5.67803 21.1012 -1.16739 4.49137 -11.1892 2.6916 -0.116664 13.828 2.96295 0 0 0 9.03717 -14.8487 9.74007 -7.16393 -4.43571 -4.9275 8.43269 -9.27076 -27.3069 0 0 0 -7.4661 -14.3435 -1.8889 8.85382 -7.95252 1.60363 -6.38408 -24.1996 40.909 0 0 0 -0.206016 -3.45488 9.06852 
-42.642 0.9945 -36.4356 9.24945 1.9777 90.9622 14.0718 -5.71287 16.4048 -8.75669 13.6934 7.325 -2.8647 4.70032 6.8946 -16.8609 2.14908 -16.8341 5.59734 20.7241 -0.837386 5.04399 -11.1628 2.63916 0.352741 14.1623 3.24585 0 0 0 7.22769 -16.3592 8.22913 -7.7732 -5.54452 -5.52121 12.0189 -11.1206 -24.9861 0 0 0 -7.60606 -14.2087 -3.21763 8.90405 -7.93175 1.62535 -6.6953 -23.9247 40.371 0 0 0 -0.952728 -2.40835 11.8684 
-44.1939 0.9643 -35.1423 9.18882 1.13694 88.1498 14.712 -5.89435 15.8178 -8.90665 14.099 7.29427 -3.46476 4.56007 5.39834 -16.8282 2.19182 -17.3509 5.50737 20.2819 -0.646378 5.54932 -11.0291 2.65161 0.829449 14.4912 3.51083 0 0 0 5.65051 -17.6001 6.88934 -8.417 -6.6593 -5.95472 15.5131 -13.0898 -22.8634 0 0 0 -7.67793 -14.0839 -4.3037 8.978 -8.041 1.65164 -7.08977 -23.6067 39.7046 0 0 0 -1.74 -1.41496 14.6672 
-45.5449 0.9618 -34.0072 8.41275 0.392838 85.5319 16.2222 -7.27373 15.008 -9.05975 14.3427 7.32645 -4.8438 5.79221 3.4244 -16.0815 2.4796 -17.1047 5.35364 19.4583 -0.519152 5.62137 -10.839 1.69943 1.45784 14.2067 3.62903 0 0 0 4.37626 -16.7265 4.96956 -8.49297 -7.26081 -6.0017 18.0112 -14.0883 -20.8459 0 0 0 -7.4972 -13.4179 -4.96382 8.85017 -7.58532 1.41236 -7.85441 -23.4173 38.8164 0 0 0 -3.2563 1.16675 17.8015 
-46.7829 0.9543 -32.9549 6.93519 -0.141168 83.1533 17.3507 -8.41548 13.9285 -9.24282 14.5421 7.37926 -6.13826 6.70719 1.57377 -15.679 3.07681 -16.9937 5.20649 18.7411 -0.394623 5.98083 -10.804 0.931004 1.85316 13.8215 3.94994 0 0 0 3.74632 -15.191 3.64347 -8.34132 -7.5559 -6.04074 20.5917 -15.0908 -18.8351 0 0 0 -7.15858 -12.7057 -5.1972 8.74276 -7.26887 1.21819 -8.46902 -23.3176 38.2674 0 0 0 -4.94909 3.65812 20.711 
-47.7296 0.9241 -32.1086 4.75343 -0.309209 81.0002 17.1819 -7.60413 11.8066 -9.25811 13.9835 7.29583 -7.56056 5.81951 0.465097 -16.1004 4.05613 -16.4899 5.21303 18.6411 -0.263841 6.76356 -11.3496 -0.198379 1.69659 13.2407 4.52216 0 0 0 4.35956 -12.7607 3.9778 -7.29088 -6.29532 -5.84909 23.3225 -15.8526 -17.2385 0 0 0 -6.45148 -12.209 -4.85639 8.70651 -7.13142 1.09144 -8.98511 -23.4033 37.9429 0 0 0 -6.64207 6.26064 23.5148 
-47.7372 0.9241 -32.1061 4.73907 -0.33312 80.9847 18.7816 -9.02518 12.3376 -9.21269 14.5225 7.20496 -8.62989 7.05958 -0.459786 -14.3302 4.73154 -16.4973 4.96804 16.76 -0.27895 5.52211 -11.5007 -0.597803 2.37476 12.7706 3.65483 0 0 0 3.37092 -12.3364 2.94588 -7.09871 -6.28891 -5.51348 21.7491 -14.3474 -16.8497 0 0 0 -6.69981 -11.7694 -4.73588 8.6306 -6.90942 1.0182 -9.32411 -23.4672 37.3458 0 0 0 -7.67106 7.51838 24.5692 
-47.7447 0.9241 -32.1036 4.71453 -0.353811 80.9598 20.2387 -10.3992 12.8719 -9.18028 14.9451 7.18423 -9.48867 8.34503 -1.43166 -12.9119 5.0969 -16.2125 4.76948 15.4055 -0.496437 4.55969 -11.4807 -0.971132 2.9686 12.4242 2.88451 0 0 0 2.4654 -11.6367 1.46124 -6.9078 -6.29325 -5.23473 20.3368 -13.1251 -16.5972 0 0 0 -6.93838 -11.4379 -4.78984 8.54468 -6.65012 0.934085 -9.68017 -23.5183 36.6316 0 0 0 -8.75509 8.63244 25.5538 
-47.7547 0.9266 -32.0986 4.67872 -0.372777 80.9355 21.5644 -11.7487 13.2835 -9.16278 15.1783 7.19681 -10.193 9.68794 -2.28389 -11.6959 5.22727 -15.4769 4.60149 14.4341 -0.633394 3.69912 -11.5265 -1.79246 3.46262 12.0429 2.20454 0 0 0 1.72208 -10.7947 -0.135192 -6.66727 -6.20653 -5.00501 19.0049 -12.0751 -16.5127 0 0 0 -7.10631 -11.0786 -4.98543 8.42403 -6.27793 0.77203 -10.1522 -23.3623 35.82 0 0 0 -9.83004 9.75868 26.4815 
-47.7673 0.9317 -32.0961 4.63567 -0.388851 80.9013 22.7848 -13.1982 13.5722 -9.19268 15.24 7.226 -10.7287 11.2126 -2.95536 -10.6659 5.182 -14.6404 4.49309 13.7153 -0.661668 2.88835 -11.5954 -2.82296 3.87821 11.6124 1.63845 0 0 0 1.04379 -9.91061 -1.76058 -6.3989 -6.0459 -4.77522 17.7512 -10.9951 -16.4863 0 0 0 -7.22468 -10.6669 -5.2804 8.24911 -5.76988 0.49742 -10.536 -23.25 35.1588 0 0 0 -10.8617 10.8327 27.2873 
-47.7824 0.9392 -32.0961 4.58366 -0.396455 80.8654 22.8301 -13.2653 13.6102 -9.2048 15.2551 7.22891 -10.7226 11.2025 -2.92732 -10.6356 5.10453 -14.6288 4.48969 13.698 -0.668 2.87518 -11.5691 -2.80922 3.88801 11.5673 1.64624 0 0 0 1.02443 -9.91882 -1.79605 -6.39855 -6.04331 -4.76353 17.735 -11.0012 -16.5211 0 0 0 -7.20234 -10.6315 -5.25231 8.25686 -5.77868 0.499137 -10.51 -23.2212 35.1703 0 0 0 -10.6432 10.5089 27.1673 
-47.7999 0.9417 -32.0961 4.54834 -0.402732 80.8227 22.8706 -13.3164 13.6481 -9.2099 15.2755 7.21997 -10.7181 11.1867 -2.89454 -10.6107 5.02488 -14.6022 4.48607 13.6912 -0.686405 2.85778 -11.5299 -2.78719 3.90345 11.5507 1.63288 0 0 0 1.01648 -9.92009 -1.839 -6.39947 -6.0401 -4.74259 17.7372 -10.9894 -16.5496 0 0 0 -7.18093 -10.6039 -5.19943 8.26358 -5.77268 0.49893 -10.492 -23.1827 35.1843 0 0 0 -10.3303 10.0701 27.0319 
-47.815 0.9492 -32.0961 4.51523 -0.403521 80.7812 22.9051 -13.3705 13.6868 -9.21758 15.3 7.21356 -10.703 11.1753 -2.85875 -10.6087 4.91093 -14.58 4.49229 13.7339 -0.706707 2.84709 -11.5038 -2.76631 3.93189 11.5546 1.60575 0 0 0 1.01358 -9.90258 -1.91484 -6.40127 -6.05382 -4.73577 17.7485 -10.9678 -16.5271 0 0 0 -7.17951 -10.5864 -5.15915 8.2755 -5.75908 0.50123 -10.4985 -23.1779 35.1835 0 0 0 -9.9752 9.53967 26.8757 
-47.8276 0.9543 -32.1011 4.48787 -0.408956 80.7293 22.9372 -13.4233 13.7295 -9.22253 15.3332 7.2035 -10.6858 11.1832 -2.83681 -10.611 4.78333 -14.5525 4.49051 13.7913 -0.72109 2.83973 -11.4713 -2.74273 3.97967 11.585 1.55989 0 0 0 1.01195 -9.89754 -2.00779 -6.38987 -6.05363 -4.71143 17.7572 -10.9596 -16.5 0 0 0 -7.20364 -10.5754 -5.15052 8.2979 -5.78455 0.535728 -10.6353 -23.2999 34.9967 0 0 0 -9.62139 8.93672 26.7138 
-47.8401 0.9568 -32.1036 4.4637 -0.414214 80.6828 22.9646 -13.474 13.7593 -9.23114 15.3604 7.19272 -10.6613 11.1661 -2.79903 -10.6265 4.64554 -14.529 4.50013 13.857 -0.744983 2.83221 -11.4312 -2.70653 4.04537 11.6285 1.47927 0 0 0 1.007 -9.90714 -2.12226 -6.3803 -6.05564 -4.68661 17.7578 -10.953 -16.4965 0 0 0 -7.27642 -10.5654 -5.20172 8.34344 -5.86468 0.602252 -10.7946 -23.4606 34.7998 0 0 0 -9.29079 8.30799 26.5957 
-47.8502 0.9618 -32.1112 4.44056 -0.423028 80.6137 22.998 -13.5132 13.8066 -9.24247 15.3862 7.17898 -10.6316 11.1704 -2.76461 -10.6446 4.49838 -14.4979 4.50629 13.9378 -0.758019 2.82517 -11.3919 -2.66994 4.12188 11.6852 1.38082 0 0 0 0.996768 -9.92013 -2.21534 -6.36379 -6.06495 -4.69343 17.7436 -10.9589 -16.5169 0 0 0 -7.35738 -10.5567 -5.22793 8.37561 -5.96911 0.658772 -10.9535 -23.6241 34.6115 0 0 0 -9.00021 7.67669 26.5224 
-47.8602 0.9668 -32.1162 4.42405 -0.428076 80.5492 23.018 -13.5357 13.8582 -9.24562 15.4016 7.15367 -10.6067 11.1734 -2.73141 -10.6724 4.35888 -14.4647 4.52174 14.033 -0.779154 2.81838 -11.3717 -2.62497 4.19314 11.739 1.26772 0 0 0 0.985023 -9.93948 -2.32471 -6.3614 -6.07833 -4.70209 17.7453 -10.97 -16.534 0 0 0 -7.45381 -10.5636 -5.26915 8.40035 -6.07683 0.711699 -11.1056 -23.802 34.4428 0 0 0 -8.78199 7.13583 26.4768 
-47.8703 0.9693 -32.1212 4.41104 -0.436976 80.4776 23.0369 -13.5483 13.9032 -9.24664 15.4128 7.12946 -10.584 11.1742 -2.68361 -10.7007 4.22947 -14.4238 4.54053 14.1346 -0.801466 2.81842 -11.3564 -2.58413 4.26538 11.7959 1.13242 0 0 0 0.986082 -9.97 -2.43093 -6.35659 -6.08508 -4.68184 17.732 -10.9812 -16.58 0 0 0 -7.55679 -10.5845 -5.29332 8.42256 -6.17927 0.753076 -11.2596 -23.9876 34.2902 0 0 0 -8.62217 6.69572 26.4817 
-47.8828 0.9719 -32.1288 4.39035 -0.454183 80.3989 23.062 -13.5657 13.9476 -9.25057 15.4359 7.13036 -10.5598 11.166 -2.64684 -10.7258 4.09882 -14.3949 4.55626 14.2194 -0.811566 2.82532 -11.3357 -2.53396 4.33712 11.8241 1.02025 0 0 0 0.955917 -10.0118 -2.57687 -6.32885 -6.08468 -4.67047 17.6966 -11.0187 -16.6142 0 0 0 -7.66318 -10.5916 -5.33515 8.43725 -6.28412 0.783408 -11.4331 -24.1729 34.1436 0 0 0 -8.53946 6.35828 26.475 
